<svg width="480" height="241" viewBox="0 0 480 241" fill="none" xmlns="http://www.w3.org/2000/svg">
<g opacity="0.2">
<path d="M11 142.608L238.946 11L469 143.829V406.827L241.825 537.998L12.7609 405.76L11 142.608Z" stroke="white" stroke-width="21" stroke-linecap="round" stroke-linejoin="round"/>
<path d="M67.3478 264.101V178.959L138.004 138.161L138.313 262.932M67.3478 219.229H138.21M189.856 263.844V109.896L239.201 81.3999M239.201 81.3999L291.566 111.632V263.844M239.201 81.3999V184.267M340.937 263.844V141.658L413.149 183.355V218.085H341.425M66.0111 307.881V369.784L141.59 413.422M281.361 307.881H189.509L189.033 439.347L239.445 468.461L281.348 444.977M189.084 378.396H261.669M329.832 422.599V307.881H412.557V336.968L374.125 359.321L408.367 379.45" stroke="white" stroke-width="21" stroke-linecap="round" stroke-linejoin="round"/>
</g>
</svg>
