<svg width="16" height="19" viewBox="0 0 16 19" fill="none" xmlns="http://www.w3.org/2000/svg">
<path d="M7.98254 9.50011C8.47947 9.50011 8.90502 9.32303 9.2592 8.96885C9.61337 8.61468 9.79016 8.18942 9.78956 7.6931C9.78956 7.19617 9.61247 6.77061 9.2583 6.41644C8.90412 6.06226 8.47887 5.88548 7.98254 5.88608C7.48561 5.88608 7.06006 6.06317 6.70588 6.41734C6.35171 6.77152 6.17492 7.19677 6.17552 7.6931C6.17552 8.19003 6.35261 8.61558 6.70679 8.96976C7.06096 9.32393 7.48621 9.50072 7.98254 9.50011ZM7.98254 18.5352C5.55813 16.4722 3.74749 14.5561 2.55065 12.7871C1.3538 11.018 0.755073 9.38025 0.754471 7.8738C0.754471 5.61503 1.48119 3.81554 2.93464 2.47533C4.38808 1.13513 6.07072 0.465027 7.98254 0.465027C9.89497 0.465027 11.5779 1.13513 13.0313 2.47533C14.4848 3.81554 15.2112 5.61503 15.2106 7.8738C15.2106 9.37965 14.6119 11.0174 13.4144 12.7871C12.217 14.5568 10.4064 16.4728 7.98254 18.5352Z" fill="#FFB84F"/>
</svg>
