<svg width="121" height="279" viewBox="0 0 121 279" fill="none" xmlns="http://www.w3.org/2000/svg">
<path d="M2 70.6762L120.948 2L240.995 71.3134V208.552L122.45 277L2.9189 207.995L2 70.6762Z" stroke="white" stroke-width="3" stroke-linecap="round" stroke-linejoin="round"/>
<path d="M31.4036 134.074V89.6451L68.2737 68.356L68.4347 133.464M31.4036 110.659H68.381M95.331 133.94V53.6066L121.08 38.7365M121.08 38.7365L148.406 54.5121V133.94M121.08 38.7365V92.4152M174.169 133.94V70.1804L211.851 91.9389V110.062H174.424M30.706 156.919V189.222L70.145 211.993M143.08 156.919H95.1499L94.9017 225.522L121.208 240.714L143.074 228.46M94.9286 193.716H132.805M168.374 216.782V156.919H211.542V172.098L191.487 183.762L209.355 194.266" stroke="white" stroke-width="3" stroke-linecap="round" stroke-linejoin="round"/>
</svg>
