<svg width="27" height="20" viewBox="0 0 27 20" fill="none" xmlns="http://www.w3.org/2000/svg">
<path d="M4.16667 1.66667C4.16667 0.744792 4.91146 0 5.83333 0H9.16667C10.0885 0 10.8333 0.744792 10.8333 1.66667H15.8333C15.8333 0.744792 16.5781 0 17.5 0H20.8333C21.7552 0 22.5 0.744792 22.5 1.66667H23.3333C25.1719 1.66667 26.6667 3.16146 26.6667 5V16.6667C26.6667 18.5052 25.1719 20 23.3333 20H3.33333C1.49479 20 0 18.5052 0 16.6667V5C0 3.16146 1.49479 1.66667 3.33333 1.66667H4.16667ZM20 6.66667C20 6.20833 19.625 5.83333 19.1667 5.83333C18.7083 5.83333 18.3333 6.20833 18.3333 6.66667V8.33333H16.6667C16.2083 8.33333 15.8333 8.70833 15.8333 9.16667C15.8333 9.625 16.2083 10 16.6667 10H18.3333V11.6667C18.3333 12.125 18.7083 12.5 19.1667 12.5C19.625 12.5 20 12.125 20 11.6667V10H21.6667C22.125 10 22.5 9.625 22.5 9.16667C22.5 8.70833 22.125 8.33333 21.6667 8.33333H20V6.66667ZM4.16667 9.16667C4.16667 9.625 4.54167 10 5 10H10C10.4583 10 10.8333 9.625 10.8333 9.16667C10.8333 8.70833 10.4583 8.33333 10 8.33333H5C4.54167 8.33333 4.16667 8.70833 4.16667 9.16667Z" fill="white"/>
</svg>
