<svg width="27" height="27" viewBox="0 0 27 27" fill="none" xmlns="http://www.w3.org/2000/svg">
<path d="M6.75 24L10.5 18H8.25V13.5L4.5 19.5H6.75V24ZM3 10.5H12V3H3V10.5ZM13.5 27H1.5C1.075 27 0.718505 26.856 0.430505 26.568C0.142505 26.28 -0.000994809 25.924 5.1903e-06 25.5V3C5.1903e-06 2.175 0.294005 1.4685 0.882005 0.880502C1.47 0.292502 2.176 -0.000997453 3 2.54669e-06H12C12.825 2.54669e-06 13.5315 0.294003 14.1195 0.882002C14.7075 1.47 15.001 2.176 15 3V13.5H16.875C17.6 13.5 18.219 13.7565 18.732 14.2695C19.245 14.7825 19.501 15.401 19.5 16.125V23.0625C19.5 23.4875 19.675 23.875 20.025 24.225C20.375 24.575 20.7625 24.75 21.1875 24.75C21.6375 24.75 22.0315 24.575 22.3695 24.225C22.7075 23.875 22.876 23.4875 22.875 23.0625V9H22.5C22.075 9 21.7185 8.856 21.4305 8.568C21.1425 8.28 20.999 7.924 21 7.5V5.25C21 5.05 21.075 4.875 21.225 4.725C21.375 4.575 21.55 4.5 21.75 4.5V3C21.75 2.8 21.825 2.625 21.975 2.475C22.125 2.325 22.3 2.25 22.5 2.25C22.7 2.25 22.875 2.325 23.025 2.475C23.175 2.625 23.25 2.8 23.25 3V4.5H24.75V3C24.75 2.8 24.825 2.625 24.975 2.475C25.125 2.325 25.3 2.25 25.5 2.25C25.7 2.25 25.875 2.325 26.025 2.475C26.175 2.625 26.25 2.8 26.25 3V4.5C26.45 4.5 26.625 4.575 26.775 4.725C26.925 4.875 27 5.05 27 5.25V7.5C27 7.925 26.856 8.2815 26.568 8.5695C26.28 8.8575 25.924 9.001 25.5 9H25.125V23.0625C25.125 24.1125 24.7435 25.0315 23.9805 25.8195C23.2175 26.6075 22.287 27.001 21.189 27C20.114 27 19.189 26.606 18.414 25.818C17.639 25.03 17.2515 24.1115 17.2515 23.0625V16.125C17.2515 16 17.22 15.906 17.157 15.843C17.094 15.78 17.0005 15.749 16.8765 15.75H15V25.5C15 25.925 14.856 26.2815 14.568 26.5695C14.28 26.8575 13.924 27.001 13.5 27Z" fill="white"/>
</svg>
