<svg width="22" height="30" viewBox="0 0 22 30" fill="none" xmlns="http://www.w3.org/2000/svg">
<path d="M14.9875 3.65017C16.4725 6.0555 17.8897 9.9385 18.2472 16.1517L20.9972 19.5067C21.6469 20.3197 22.0005 21.3296 22 22.3703V28.4167C22 28.6091 21.9395 28.7966 21.827 28.9527C21.7145 29.1087 21.5557 29.2255 21.3732 29.2863C21.1907 29.3471 20.9937 29.349 20.81 29.2916C20.6264 29.2343 20.4654 29.1206 20.35 28.9667L18.2875 26.2167C17.9832 25.8097 17.5175 25.4833 16.9088 25.1717C16.5165 24.9737 16.1498 24.8197 15.7593 24.6547L15.4 24.5025C14.1167 25.2872 12.5583 25.6667 11 25.6667C9.44167 25.6667 7.88333 25.2872 6.6 24.5025C6.47533 24.5575 6.35617 24.607 6.237 24.6565C5.85017 24.8197 5.4835 24.9737 5.09117 25.1717C4.4825 25.4833 4.01683 25.8097 3.7125 26.2167L1.65 28.9667C1.53456 29.1206 1.37363 29.2343 1.18999 29.2916C1.00635 29.349 0.80931 29.3471 0.626791 29.2863C0.444272 29.2255 0.285522 29.1087 0.173028 28.9527C0.0605343 28.7966 8.23608e-10 28.6091 8.23608e-10 28.4167V22.3703C-1.97253e-05 21.3294 0.354303 20.3194 1.00467 19.5067L1.012 19.4975L3.7565 16.1517C4.11767 10.0595 5.533 6.18933 7.00883 3.76567C7.86317 2.3595 8.73217 1.452 9.4105 0.887333C9.75198 0.600902 10.1211 0.34911 10.5123 0.135667C10.6607 0.0496394 10.8285 0.00294041 11 0C11.1852 0 11.3117 0.0495 11.4583 0.117333C11.5262 0.1485 11.616 0.1925 11.7242 0.254833C11.9405 0.375833 12.232 0.561 12.573 0.832333C13.2568 1.37683 14.1313 2.2605 14.9875 3.65017ZM13.75 11C13.75 8.97417 12.518 7.33333 11 7.33333C9.482 7.33333 8.25 8.97417 8.25 11C8.25 13.0258 9.482 14.6667 11 14.6667C12.518 14.6667 13.75 13.0258 13.75 11Z" fill="white"/>
</svg>
