<svg width="34" height="35" viewBox="0 0 34 35" fill="none" xmlns="http://www.w3.org/2000/svg">
<path d="M0 17.5006C0 26.8872 7.61357 34.5 17.0024 34.5C26.3901 34.5 34 26.8872 34 17.5006C34 8.11276 26.3901 0.5 17.0024 0.5C7.61357 0.5 0 8.11276 0 17.5006ZM16.3018 31.1599C13.5889 31.025 10.9783 30.0816 8.806 28.4511L14.9989 21.0763C15.3959 21.2997 15.8355 21.4588 16.3018 21.5377V31.1586V31.1599ZM17.7723 31.155V21.5267C18.1068 21.4628 18.4319 21.3572 18.7401 21.2123L24.259 29.0958C22.3062 30.3208 20.0741 31.0294 17.7723 31.155ZM25.4611 28.2483L19.9361 20.3599C20.1722 20.12 20.3771 19.8511 20.5457 19.5598L29.5921 22.8538C28.689 24.9697 27.2685 26.8247 25.4611 28.2483ZM30.0961 21.4721L21.0448 18.1769C21.0999 17.8448 21.1142 17.5072 21.0873 17.1716L30.3936 14.6789C30.8655 16.9324 30.7632 19.2684 30.0961 21.4721ZM30.0147 13.2596L20.7109 15.7547C20.5675 15.4504 20.3872 15.165 20.1741 14.9047L26.3682 7.5251C28.0464 9.09976 29.3006 11.072 30.0147 13.2596ZM25.245 6.57685L19.0558 13.9528C18.658 13.7221 18.2241 13.5603 17.7723 13.4745V3.83771C20.4805 3.98597 23.0826 4.9398 25.245 6.57685ZM16.3018 3.83286V13.4611C15.9621 13.5199 15.6312 13.6214 15.317 13.7634L9.78957 5.87021C11.7521 4.64935 13.9933 3.94738 16.3018 3.83286ZM8.585 6.71162L14.1064 14.6C13.8605 14.8456 13.6467 15.1214 13.4701 15.4208L4.41636 12.1255C5.32739 9.99846 6.76135 8.13615 8.585 6.71162ZM3.91243 13.506L12.9625 16.8025C12.9033 17.1472 12.8882 17.4981 12.9176 17.8466L3.61614 20.3381C3.41887 19.4039 3.31957 18.4517 3.31986 17.497C3.31986 16.1092 3.52629 14.7688 3.91243 13.506ZM3.99621 21.755L13.3013 19.266C13.4519 19.5817 13.6425 19.8755 13.8659 20.1402L7.68036 27.5101C5.98557 25.9339 4.71805 23.9539 3.99621 21.755ZM18.9137 17.5018C18.9137 18.0087 18.7123 18.4948 18.3539 18.8532C17.9955 19.2116 17.5093 19.4129 17.0024 19.4129C16.4955 19.4129 16.0094 19.2116 15.6509 18.8532C15.2925 18.4948 15.0911 18.0087 15.0911 17.5018C15.0911 16.995 15.2925 16.5089 15.6509 16.1505C16.0094 15.7921 16.4955 15.5907 17.0024 15.5907C17.5093 15.5907 17.9955 15.7921 18.3539 16.1505C18.7123 16.5089 18.9137 16.995 18.9137 17.5018Z" fill="#3D3D3D"/>
</svg>
