<svg width="480" height="261" viewBox="0 0 480 261" fill="none" xmlns="http://www.w3.org/2000/svg">
<g opacity="0.2">
<path d="M11 -145.392L238.946 -277L469 -144.171V118.827L241.825 249.998L12.7609 117.76L11 -145.392Z" stroke="white" stroke-width="21" stroke-linecap="round" stroke-linejoin="round"/>
<path d="M67.3478 -23.8988V-109.041L138.004 -149.839L138.313 -25.0685M67.3478 -68.7708H138.21M189.856 -24.1559V-178.104L239.201 -206.6M239.201 -206.6L291.566 -176.368V-24.1559M239.201 -206.6V-103.733M340.937 -24.1559V-146.342L413.149 -104.645V-69.9147H341.425M66.011 19.8806V81.7836L141.59 125.422M281.361 19.8806H189.509L189.033 151.347L239.445 180.461L281.348 156.977M189.084 90.3955H261.669M329.832 134.599V19.8806H412.557V48.9683L374.125 71.3208L408.367 91.4495" stroke="white" stroke-width="21" stroke-linecap="round" stroke-linejoin="round"/>
</g>
</svg>
