<svg width="25" height="17" viewBox="0 0 25 17" fill="none" xmlns="http://www.w3.org/2000/svg">
<path fill-rule="evenodd" clip-rule="evenodd" d="M10.083 7.76014C10.7101 7.48156 11.2491 7.03685 11.6418 6.47409C12.0111 5.86234 12.1931 5.15577 12.1653 4.44171C12.1896 3.78893 12.0691 3.13886 11.8124 2.53817C11.6022 2.02672 11.2572 1.58186 10.8142 1.25095C10.3499 0.91435 9.82182 0.685693 9.267 0.582391C8.61172 0.436823 7.94181 0.367495 7.27061 0.375787H0.348209C0.255858 0.375787 0.16729 0.412473 0.101988 0.477774C0.0366862 0.543076 0 0.631645 0 0.723996V16.2089C0 16.3012 0.0366862 16.3898 0.101988 16.4551C0.16729 16.5204 0.255858 16.5571 0.348209 16.5571H7.42846C8.10631 16.5571 8.78183 16.4665 9.43647 16.2866C10.0627 16.1149 10.6528 15.8318 11.1787 15.4509C11.698 15.0685 12.1163 14.5654 12.3974 13.985C12.715 13.3235 12.8694 12.5955 12.8478 11.862C12.8719 10.9552 12.6302 10.0611 12.1525 9.28994C11.6564 8.53293 10.897 7.98697 10.0215 7.75782H10.083V7.76014ZM3.54013 2.98735C3.47856 2.98735 3.41951 3.01181 3.37598 3.05535C3.33244 3.09888 3.30799 3.15793 3.30799 3.21949V6.81766C3.30799 6.94533 3.41245 7.04979 3.54013 7.04979H6.79008C7.32879 7.04979 7.84544 6.83579 8.22637 6.45486C8.60729 6.07394 8.8213 5.55729 8.8213 5.01857C8.8213 4.47986 8.60729 3.96321 8.22637 3.58229C7.84544 3.20136 7.32879 2.98735 6.79008 2.98735H3.54013ZM3.30799 9.31315C3.30799 9.18548 3.41245 9.08101 3.54013 9.08101H6.93516C7.58932 9.08101 8.21667 9.34087 8.67923 9.80343C9.14178 10.266 9.40165 10.8933 9.40165 11.5475C9.40165 12.2016 9.14178 12.829 8.67923 13.2916C8.21667 13.7541 7.58932 14.014 6.93516 14.014H3.54013C3.47856 14.014 3.41951 13.9895 3.37598 13.946C3.33244 13.9024 3.30799 13.8434 3.30799 13.7818V9.31315Z" fill="white"/>
<path d="M16.1789 1.19983H21.6609C21.7524 1.19982 21.8403 1.23587 21.9055 1.30017C21.9706 1.36447 22.0079 1.45185 22.0091 1.5434L22.0242 2.65999C22.0248 2.7061 22.0162 2.75188 21.999 2.79467C21.9818 2.83745 21.9562 2.87639 21.9238 2.90921C21.8914 2.94204 21.8528 2.96811 21.8103 2.98589C21.7677 3.00368 21.7221 3.01284 21.676 3.01284H16.1789C16.0865 3.01284 15.998 2.97615 15.9327 2.91085C15.8674 2.84555 15.8307 2.75698 15.8307 2.66463V1.54804C15.8307 1.45569 15.8674 1.36712 15.9327 1.30182C15.998 1.23652 16.0865 1.19983 16.1789 1.19983Z" fill="white"/>
<path fill-rule="evenodd" clip-rule="evenodd" d="M19.119 14.1533C19.684 14.1701 20.2391 14.0031 20.701 13.6774C21.0028 13.4766 21.2431 13.1899 21.3951 12.851C21.4141 12.8068 21.4455 12.7691 21.4855 12.7423C21.5254 12.7156 21.5722 12.7009 21.6203 12.7001H23.85C24.0009 12.7001 24.1123 12.8417 24.0671 12.9857C23.7367 14.0757 23.0705 15.0336 22.1635 15.7226C21.2089 16.3439 20.0868 16.6578 18.9484 16.6221C18.1394 16.6366 17.3357 16.4882 16.5852 16.1857C15.9027 15.8974 15.2949 15.4571 14.8082 14.8985C14.3267 14.3183 13.9624 13.6502 13.7357 12.9311C13.4653 12.1274 13.3338 11.2835 13.3469 10.4356C13.339 9.59958 13.4748 8.76841 13.7485 7.97841C13.9994 7.25618 14.3925 6.59155 14.9045 6.02379C15.4083 5.47799 16.0176 5.04008 16.6955 4.73658C17.4246 4.41727 18.2128 4.25512 19.0087 4.26069C19.8565 4.2481 20.694 4.44759 21.4451 4.84104C22.1323 5.22126 22.7238 5.75319 23.1745 6.39638C23.6283 7.06726 23.9591 7.82171 24.1483 8.62143C24.3437 9.46431 24.4133 10.3314 24.3549 11.1947H16.2939C16.2554 12.0167 16.5244 12.8235 17.0483 13.4581C17.3292 13.7181 17.6589 13.9142 18.0152 14.0338C18.3715 14.1533 18.7476 14.1939 19.119 14.1533ZM16.3658 8.96384C16.3657 8.97928 16.3686 8.99459 16.3745 9.00888C16.3803 9.02318 16.3889 9.03616 16.3998 9.04708C16.4107 9.05799 16.4237 9.06662 16.438 9.07246C16.4523 9.0783 16.4676 9.08122 16.4831 9.08107H21.1816C21.2127 9.08107 21.2425 9.06872 21.2645 9.04673C21.2865 9.02475 21.2988 8.99493 21.2988 8.96384C21.2988 8.34078 21.0513 7.74324 20.6107 7.30267C20.1702 6.8621 19.5726 6.61459 18.9496 6.61459H18.7151C18.092 6.61459 17.4945 6.8621 17.0539 7.30267C16.6134 7.74324 16.3658 8.34078 16.3658 8.96384Z" fill="white"/>
</svg>
