<svg width="25" height="25" viewBox="0 0 25 25" fill="none" xmlns="http://www.w3.org/2000/svg">
<path d="M24.2271 10.1926C24.3809 11.0163 24.4646 11.8775 24.4646 12.7763C24.4646 19.8062 19.7597 24.8048 12.6536 24.8048C11.0375 24.8053 9.43723 24.4874 7.94412 23.8692C6.451 23.251 5.09433 22.3447 3.95163 21.2019C2.80892 20.0592 1.90257 18.7026 1.28437 17.2095C0.66617 15.7163 0.348232 14.1161 0.348725 12.5C0.348232 10.884 0.66617 9.28369 1.28437 7.79058C1.90257 6.29747 2.80892 4.9408 3.95163 3.79809C5.09433 2.65539 6.451 1.74904 7.94412 1.13084C9.43723 0.512636 11.0375 0.194698 12.6536 0.195191C15.976 0.195191 18.7522 1.41767 20.8822 3.40265L17.4135 6.87135V6.8626C16.1223 5.63261 14.4835 5.00137 12.6536 5.00137C8.59361 5.00137 5.29366 8.43133 5.29366 12.4925C5.29366 16.5525 8.59361 19.9899 12.6536 19.9899C16.3372 19.9899 18.8447 17.8837 19.3597 14.9912H12.6536V10.1926H24.2284H24.2271Z" fill="white"/>
</svg>
