<svg xmlns="http://www.w3.org/2000/svg" fill="none" viewBox="97.4508 0 183.774 6.1875" style="max-height: 500px" width="183.774" height="6.1875">
<path fill="#919191" d="M279.278 4.06116C280.106 4.06282 280.779 3.3926 280.781 2.56418C280.782 1.73575 280.112 1.06283 279.284 1.06116L279.278 4.06116ZM64.6262 17.3934L65.8895 18.2022L64.6262 17.3934ZM279.284 1.06116L92.4882 0.685823L92.4822 3.68582L279.278 4.06116L279.284 1.06116ZM63.3629 16.5847L0.236841 115.191L2.76347 116.809L65.8895 18.2022L63.3629 16.5847ZM92.4882 0.685823C80.7013 0.66214 69.718 6.65768 63.3629 16.5847L65.8895 18.2022C71.692 9.13838 81.7202 3.66419 92.4822 3.68582L92.4882 0.685823Z"/>
</svg>