<svg width="26" height="25" viewBox="0 0 26 25" fill="none" xmlns="http://www.w3.org/2000/svg">
<path d="M23.5114 0.000174786H2.33674C2.09872 -0.00313094 1.86237 0.0404836 1.64121 0.128528C1.42004 0.216572 1.21839 0.347321 1.04776 0.513308C0.877127 0.679294 0.740866 0.877268 0.646755 1.09592C0.552645 1.31457 0.502528 1.54963 0.499268 1.78765V23.2123C0.502528 23.4504 0.552645 23.6854 0.646755 23.9041C0.740866 24.1227 0.877127 24.3207 1.04776 24.4867C1.21839 24.6527 1.42004 24.7834 1.64121 24.8715C1.86237 24.9595 2.09872 25.0031 2.33674 24.9998H23.5114C23.7495 25.0031 23.9858 24.9595 24.207 24.8715C24.4281 24.7834 24.6298 24.6527 24.8004 24.4867C24.9711 24.3207 25.1073 24.1227 25.2014 23.9041C25.2955 23.6854 25.3457 23.4504 25.3489 23.2123V1.78765C25.3457 1.54963 25.2955 1.31457 25.2014 1.09592C25.1073 0.877268 24.9711 0.679294 24.8004 0.513308C24.6298 0.347321 24.4281 0.216572 24.207 0.128528C23.9858 0.0404836 23.7495 -0.00313094 23.5114 0.000174786ZM8.03666 20.9249H4.28671V9.67504H8.03666V20.9249ZM6.16169 8.10006C5.64452 8.10006 5.14854 7.89462 4.78285 7.52893C4.41716 7.16324 4.21172 6.66725 4.21172 6.15009C4.21172 5.63292 4.41716 5.13694 4.78285 4.77125C5.14854 4.40556 5.64452 4.20012 6.16169 4.20012C6.4363 4.16897 6.7144 4.19618 6.97777 4.27997C7.24114 4.36375 7.48384 4.50222 7.68999 4.68631C7.89613 4.8704 8.06107 5.09595 8.174 5.3482C8.28693 5.60045 8.3453 5.87371 8.3453 6.15009C8.3453 6.42646 8.28693 6.69972 8.174 6.95197C8.06107 7.20423 7.89613 7.42978 7.68999 7.61387C7.48384 7.79795 7.24114 7.93642 6.97777 8.02021C6.7144 8.10399 6.4363 8.1312 6.16169 8.10006ZM21.5615 20.9249H17.8115V14.8875C17.8115 13.375 17.274 12.3875 15.9116 12.3875C15.4899 12.3906 15.0793 12.5228 14.7351 12.7665C14.3909 13.0101 14.1297 13.3533 13.9866 13.75C13.8888 14.0438 13.8464 14.3532 13.8616 14.6625V20.9124H10.1116V9.66254H13.8616V11.25C14.2022 10.6589 14.6977 10.1719 15.2946 9.84154C15.8915 9.51115 16.5673 9.34986 17.249 9.37504C19.749 9.37504 21.5615 10.9875 21.5615 14.45V20.9249Z" fill="white"/>
</svg>
