<svg width="164" height="44" viewBox="0 0 164 44" fill="none" xmlns="http://www.w3.org/2000/svg">
<path d="M1 12.2412L17.8659 2.50342L34.8879 12.3316V31.791L18.079 41.4965L1.13029 31.7121L1 12.2412Z" stroke="#FFB84F" stroke-width="1.9021" stroke-linecap="round" stroke-linejoin="round"/>
<path d="M5.16901 21.2306V14.9309L10.3969 11.9122L10.4198 21.1441M5.16901 17.9105H10.4122M14.2335 21.2116V9.82088L17.8846 7.7124M17.8846 7.7124L21.7592 9.94928V21.2116M17.8846 7.7124V15.3237M25.4121 21.2116V12.1709L30.7551 15.2561V17.8259H25.4483M5.0701 24.4699V29.0502L10.6623 32.279M21.004 24.4699H14.2078L14.1726 34.1973L17.9026 36.3514L21.0031 34.6138M14.1764 29.6874H19.547M24.5904 32.9581V24.4699H30.7114V26.6222L27.8678 28.276L30.4014 29.7654" stroke="#FFB84F" stroke-width="1.9021" stroke-linecap="round" stroke-linejoin="round"/>
<path d="M50.516 10.4893H56.2686L62.0213 33.5H59.145L58.4259 30.6237H48.3587L47.6396 33.5H44.7633L50.516 10.4893ZM52.5006 13.3656L49.2216 27.7473H57.5342L54.2552 13.3656H52.5006ZM65.3612 10.4893H68.4101L73.53 24.0944L78.6499 10.4893H81.7276H81.6988H81.7563L83.5684 33.5H80.6921L79.369 16.731L74.7381 29.0417H72.3219L67.7486 16.846L66.4255 33.5H63.5491L65.3612 10.4893ZM94.6194 10.4318C97.0067 10.4318 99.7105 10.9208 102.012 12.3302C104.284 13.7683 106.067 16.3283 106.067 19.8374C106.067 23.3178 104.313 25.8777 102.04 27.3159C99.768 28.7253 97.0643 29.2143 94.7057 29.2143H88.953V33.5H86.0767V10.4893H86.767C89.7584 10.4318 94.6194 10.4318 94.6194 10.4318ZM94.6194 13.3369C94.6194 13.3369 91.6568 13.3369 88.953 13.3656V26.3092H94.7057C96.6328 26.3092 98.9051 25.8777 100.516 24.871C102.127 23.8643 103.162 22.4261 103.162 19.8374C103.162 17.2199 102.098 15.8105 100.487 14.7751C98.8476 13.7683 96.5753 13.3369 94.6194 13.3369ZM107.733 10.4893H110.61V30.6237H122.086V33.5H107.733V10.4893ZM123.463 10.4893H126.34H140.721V13.3656H126.34V17.6802H137.845V20.5565H126.34V30.6237H140.721V33.5H123.463V30.6237V20.5565V17.6802V13.3656V10.4893ZM151.193 10.4893C153.58 10.4893 156.313 11.0933 158.585 12.6178C160.858 14.1423 162.612 16.7597 162.612 20.2689C162.612 23.778 160.858 26.3667 158.585 27.8624C157.665 28.4664 156.658 28.9266 155.623 29.243L159.937 33.5575H155.882L152.2 29.8758C151.855 29.9046 151.509 29.9333 151.193 29.9333L145.412 29.9621V33.5288H142.535V10.5468H144.894C147.77 10.4893 151.193 10.4893 151.193 10.4893ZM151.164 13.3944C151.164 13.3944 148.144 13.3944 145.412 13.4232V27.0858L151.164 27.0282C153.091 27.0282 155.364 26.5393 157.003 25.4463C158.643 24.382 159.707 22.8863 159.707 20.2689C159.707 17.6514 158.614 16.1269 156.975 15.0052C155.335 13.9122 153.091 13.3944 151.164 13.3944Z" fill="#251600"/>
</svg>
