<svg width="210" height="55" viewBox="0 0 210 55" fill="none" xmlns="http://www.w3.org/2000/svg">
<path d="M2 15.0178L23.5727 2.5625L45.3449 15.1334V40.0234L23.8452 52.4374L2.16666 39.9225L2 15.0178Z" stroke="white" stroke-width="2.43292" stroke-linecap="round" stroke-linejoin="round"/>
<path d="M7.33251 26.516V18.4582L14.0194 14.5971L14.0486 26.4053M7.33251 22.2693H14.0389M18.9266 26.4917V11.9221L23.5966 9.22522M23.5966 9.22522L28.5525 12.0863V26.4917M23.5966 9.22522V18.9606M33.2249 26.4917V14.928L40.059 18.8742V22.1611H33.2711M7.20599 30.6593V36.5177L14.3588 40.6476M27.5866 30.6593H18.8938L18.8487 43.1012L23.6197 45.8565L27.5854 43.634M18.8536 37.3328H25.723M32.1739 41.5162V30.6593H40.003V33.4121L36.3658 35.5275L39.6064 37.4325" stroke="white" stroke-width="2.43292" stroke-linecap="round" stroke-linejoin="round"/>
<path d="M65.3344 13.5677H72.6924L80.0505 43H76.3715L75.4517 39.321H62.5751L61.6553 43H57.9763L65.3344 13.5677ZM67.8729 17.2468L63.6788 35.6419H74.3112L70.1171 17.2468H67.8729ZM84.3225 13.5677H88.2223L94.7709 30.9696L101.32 13.5677H105.256H105.219H105.293L107.611 43H103.932L102.239 21.5512L96.3161 37.2975H93.2258L87.3761 21.6984L85.6837 43H82.0047L84.3225 13.5677ZM121.746 13.4941C124.799 13.4941 128.258 14.1196 131.201 15.9223C134.107 17.7618 136.388 21.0362 136.388 25.5246C136.388 29.9762 134.144 33.2506 131.238 35.0901C128.331 36.8928 124.873 37.5182 121.856 37.5182H114.498V43H110.819V13.5677H111.702C115.528 13.4941 121.746 13.4941 121.746 13.4941ZM121.746 17.21C121.746 17.21 117.956 17.21 114.498 17.2468V33.8024H121.856C124.321 33.8024 127.227 33.2506 129.288 31.9629C131.348 30.6752 132.672 28.8357 132.672 25.5246C132.672 22.1767 131.311 20.3739 129.251 19.0495C127.154 17.7618 124.247 17.21 121.746 17.21ZM138.52 13.5677H142.199V39.321H156.878V43H138.52V13.5677ZM158.639 13.5677H162.318H180.713V17.2468H162.318V22.7653H177.034V26.4443H162.318V39.321H180.713V43H158.639V39.321V26.4443V22.7653V17.2468V13.5677ZM194.107 13.5677C197.161 13.5677 200.656 14.3403 203.563 16.2902C206.469 18.2401 208.713 21.588 208.713 26.0764C208.713 30.5649 206.469 33.876 203.563 35.7891C202.385 36.5617 201.098 37.1503 199.773 37.555L205.292 43.0736H200.104L195.395 38.3644C194.954 38.4012 194.512 38.438 194.107 38.438L186.713 38.4748V43.0368H183.034V13.6413H186.05C189.729 13.5677 194.107 13.5677 194.107 13.5677ZM194.071 17.2836C194.071 17.2836 190.208 17.2836 186.713 17.3203V34.7958L194.071 34.7222C196.536 34.7222 199.442 34.0967 201.539 32.6987C203.636 31.3375 204.997 29.4244 204.997 26.0764C204.997 22.7285 203.599 20.7786 201.502 19.3438C199.405 17.9458 196.536 17.2836 194.071 17.2836Z" fill="#251600"/>
</svg>
