<svg width="27" height="23" viewBox="0 0 27 23" fill="none" xmlns="http://www.w3.org/2000/svg">
<path d="M8.71008 22.1248C18.616 22.1248 24.0349 13.9474 24.0349 6.86835C24.0349 6.63952 24.0349 6.40742 24.0251 6.17859C25.0801 5.4177 25.9906 4.47568 26.714 3.39666C25.7286 3.82956 24.6842 4.11487 23.615 4.24334C24.7413 3.5726 25.5849 2.51725 25.9889 1.27344C24.9307 1.89802 23.7725 2.33648 22.565 2.5696C21.7532 1.70826 20.6789 1.13764 19.5087 0.946142C18.3384 0.754643 17.1374 0.952948 16.0917 1.51034C15.046 2.06773 14.214 2.9531 13.7245 4.02931C13.235 5.10552 13.1154 6.31251 13.3842 7.46331C11.2427 7.35634 9.14782 6.8021 7.23525 5.83656C5.32268 4.87101 3.63518 3.51573 2.2822 1.85859C1.59535 3.04048 1.38574 4.4385 1.69593 5.76876C2.00612 7.09903 2.81286 8.26182 3.95234 9.021C3.09847 8.99209 2.26337 8.76366 1.5144 8.35412V8.42767C1.51587 9.66578 1.94638 10.8654 2.73316 11.8238C3.51994 12.7822 4.61473 13.4405 5.83247 13.6875C5.37025 13.8144 4.89278 13.8776 4.41335 13.8755C4.07536 13.8765 3.73804 13.8453 3.40602 13.7823C3.75019 14.8481 4.42036 15.7799 5.32264 16.4473C6.22493 17.1147 7.31415 17.4842 8.43774 17.5041C6.52899 18.9977 4.17119 19.8078 1.74409 19.8038C1.31642 19.8056 0.889042 19.7811 0.464417 19.7303C2.9278 21.2949 5.78866 22.1257 8.71008 22.1248Z" fill="white"/>
</svg>
